<svg xmlns="http://www.w3.org/2000/svg" viewBox="0 0 400 440" role="img" aria-label="EpiSewer.jl logo">
  <title>EpiSewer.jl logo</title>
  <polygon points="200,30 364.5,125 364.5,315 200,410 35.5,315 35.5,125" fill="none" stroke="#64748b" stroke-width="2" stroke-linejoin="round" opacity="0.4"/>

  <!-- Sewer pipe network feeding into forecast trajectories -->
  <path d="M 80,140 L 120,140 L 120,190 L 160,190" fill="none" stroke="#94a3b8" stroke-width="8" stroke-linecap="square" stroke-linejoin="miter"/>
  <path d="M 80,240 L 120,240 L 120,190" fill="none" stroke="#94a3b8" stroke-width="8" stroke-linecap="square" stroke-linejoin="miter"/>
  <path d="M 160,190 L 195,190" fill="none" stroke="#64748b" stroke-width="10" stroke-linecap="square"/>

  <rect x="115" y="135" width="10" height="10" fill="#e2e8f0" stroke="#64748b" stroke-width="1.5"/>
  <rect x="115" y="235" width="10" height="10" fill="#e2e8f0" stroke="#64748b" stroke-width="1.5"/>
  <rect x="155" y="183" width="10" height="14" fill="#e2e8f0" stroke="#64748b" stroke-width="1.5"/>
  <rect x="188" y="181" width="8" height="18" fill="#e2e8f0" stroke="#64748b" stroke-width="1.5"/>

  <path d="M 198,190 C 230,190 235,110 270,110 C 295,110 305,245 330,245" fill="none" stroke="#14b8a6" stroke-width="3" opacity="0.5" stroke-linecap="round"/>
  <path d="M 198,190 C 230,190 240,140 270,140 C 295,140 300,225 330,225" fill="none" stroke="#0ea5e9" stroke-width="3" opacity="0.6" stroke-linecap="round"/>
  <path d="M 198,190 C 230,190 245,160 270,160 C 290,160 300,205 330,205" fill="none" stroke="#3b82f6" stroke-width="3" opacity="0.8" stroke-linecap="round"/>

  <text x="200" y="340" font-family="system-ui, -apple-system, sans-serif" font-size="34" font-weight="600" fill="#64748b" text-anchor="middle">EpiSewer</text>
  <text x="200" y="365" font-family="system-ui, -apple-system, sans-serif" font-size="16" font-weight="500" fill="#94a3b8" text-anchor="middle">.jl</text>
</svg>
